{"title":"Get Hard (2015) 720p x265 HEVC - YIFY &amp; NTG","uid":12027056,"size":564206230,"categoryP":"video","categoryS":"hd___movies","magnet":"?xt=urn:btih:e555aa15fac686f674d8f43b5bcb2f5121c87b75&amp;dn=Get+Hard+%282015%29+720p+x265+HEVC+-+YIFY+%26amp%3B+NTG&amp;tr=udp%3A%2F%2Ftracker.openbittorrent.com%3A80&amp;tr=udp%3A%2F%2Fopen.demonii.com%3A1337&amp;tr=udp%3A%2F%2Ftracker.coppersurfer.tk%3A6969&amp;tr=udp%3A%2F%2Fexodus.desync.com%3A6969","seeders":0,"leechers":1,"uploader":"new_tech_guy","files":1,"time":1434500669,"description":"[url=&quot;http://www.imdb.com/title/tt2561572/&quot;]http://www.imdb.com/title/tt2561572/[/url]\n\n\nIMDB RATING: 6.2\n\nFORMAT.......................: MP4\nCODEC........................: x265 HEVC (original x264)\nGENRE........................: Comedy\nFILE SIZE....................: 538.07 MB (66% of original 812.24 MB)\nRESOLUTION...................: 1280*720\nFRAME RATE...................: 23.976 fps\nLANGUAGE.....................: English\nRUNTIME......................: 100 mins\n\nThis video is ReRip of original Get Hard 2015 posted by YIFY.\nOn this video you save 34% disk space but lose 10% quaility.\nAudio is same as on original. I also add english subtitles.\n\nThis video is posted for testing purposes only!\nAll credits for upload goes to YIFY!\n\nEnjoy\n\nMediaInfo:\nGeneral\nComplete name : X:Get Hard (2015)Get.Hard.2015.720p.BluRay.x265.HEVC.YIFY.NTG.mp4\nFormat : hvc1\nCodec ID : hvc1\nFile size : 538 MiB\nDuration : 1h 46mn\nOverall bit rate mode : Variable\nOverall bit rate : 705 Kbps\nEncoded date : UTC 2015-06-17 06:57:53\nTagged date : UTC 2015-06-17 06:57:53\nWriting application : Hybrid 2015.05.10.1\n\nVideo\nID : 1\nFormat : HEVC\nFormat/Info : High Efficiency Video Coding\nFormat profile : &lt;a class=&quot;__cf_email__&quot; href=&quot;/cdn-cgi/l/email-protection&quot; data-cfemail=&quot;8fc2eee6e1cfc3bca1be&quot;&gt;[email&amp;#160;protected]&lt;/a&gt;&lt;script data-cfhash='f9e31' type=&quot;text/javascript&quot;&gt;\n/* &lt;![CDATA[ */!function(){try{var t=&quot;currentScript&quot;in document?document.currentScript:function(){for(var t=document.getElementsByTagName(&quot;script&quot;),e=t.length;e--;)if(t[e].getAttribute(&quot;data-cfhash&quot;))return t[e]}();if(t&amp;&amp;t.previousSibling){var e,r,n,i,c=t.previousSibling,a=c.getAttribute(&quot;data-cfemail&quot;);if(a){for(e=&quot;&quot;,r=parseInt(a.substr(0,2),16),n=2;a.length-n;n+=2)i=parseInt(a.substr(n,2),16)^r,e+=String.fromCharCode(i);e=document.createTextNode(e),c.parentNode.replaceChild(e,c)}t.parentNode.removeChild(t);}}catch(u){}}()/* ]]&gt; */&lt;/script&gt;@Main\nCodec ID : hvc1\nCodec ID/Info : High Efficiency Video Coding\nDuration : 1h 46mn\nBit rate : 607 Kbps\nMaximum bit rate : 2 792 Kbps\nWidth : 1 280 pixels\nHeight : 720 pixels\nDisplay aspect ratio : 16:9\nFrame rate mode : Constant\nFrame rate : 23.976 fps\nColor space : YUV\nChroma subsampling : 4:2:0\nBit depth : 8 bits\nBits/(Pixel*Frame) : 0.027\nStream size : 463 MiB (86%)\nWriting library : x265 1.6+411-3700169eb622:[Windows][GCC 4.9.2][64 bit]\nEncoding settings : wpp / ctu=16 / min-cu-size=8 / max-tu-size=16 / tu-intra-depth=1 / tu-inter-depth=1 / me=1 / subme=2 / merange=57 / no-rect / no-amp / max-merge=2 / temporal-mvp / no-early-skip / rdpenalty=0 / no-tskip / no-tskip-fast / strong-intra-smoothing / no-lossless / cu-lossless / no-constrained-intra / no-fast-intra / no-open-gop / no-temporal-layers / interlace=0 / keyint=250 / min-keyint=23 / scenecut=40 / rc-lookahead=20 / lookahead-slices=0 / bframes=4 / bframe-bias=0 / b-adapt=2 / ref=3 / weightp / no-weightb / aq-mode=1 / aq-strength=1.00 / cbqpoffs=0 / crqpoffs=0 / rd=3 / psy-rd=1.00 / rdoq-level=0 / psy-rdoq=0.00 / signhide / deblock / sao / no-sao-non-deblock / b-pyramid / cutree / rc=crf / crf=28.0 / qcomp=0.60 / qpmin=0 / qpmax=51 / qpstep=4 / ipratio=1.40 / pbratio=1.30\nEncoded date : UTC 2015-06-17 06:57:53\nTagged date : UTC 2015-06-17 06:58:08\nColor range : Limited\nMatrix coefficients : BT.601\n\nAudio\nID : 2\nFormat : AAC\nFormat/Info : Advanced Audio Codec\nFormat profile : LC\nCodec ID : 40\nDuration : 1h 46mn\nBit rate mode : Variable\nBit rate : 93.7 Kbps\nMaximum bit rate : 102 Kbps\nChannel(s) : 2 channels\nChannel positions : Front: L R\nSampling rate : 48.0 KHz\nCompression mode : Lossy\nStream size : 71.5 MiB (13%)\nTitle : AAC#audio\nLanguage : English\nEncoded date : UTC 2015-06-17 06:58:02\nTagged date : UTC 2015-06-17 06:58:08\n\nText\nID : 3\nFormat : Timed Text\nCodec ID : tx3g\nDuration : 1h 42mn\nBit rate mode : Variable\nBit rate : 99 bps\nStream size : 74.5 KiB (0%)\nTitle : *&lt;a class=&quot;__cf_email__&quot; href=&quot;/cdn-cgi/l/email-protection&quot; data-cfemail=&quot;b5e1e1edf5f2e5f4f6859b809b8498f1f0e398c7d0c380868785&quot;&gt;[email&amp;#160;protected]&lt;/a&gt;&lt;script data-cfhash='f9e31' type=&quot;text/javascript&quot;&gt;\n/* &lt;![CDATA[ */!function(){try{var t=&quot;currentScript&quot;in document?document.currentScript:function(){for(var t=document.getElementsByTagName(&quot;script&quot;),e=t.length;e--;)if(t[e].getAttribute(&quot;data-cfhash&quot;))return t[e]}();if(t&amp;&amp;t.previousSibling){var e,r,n,i,c=t.previousSibling,a=c.getAttribute(&quot;data-cfemail&quot;);if(a){for(e=&quot;&quot;,r=parseInt(a.substr(0,2),16),n=2;a.length-n;n+=2)i=parseInt(a.substr(n,2),16)^r,e+=String.fromCharCode(i);e=document.createTextNode(e),c.parentNode.replaceChild(e,c)}t.parentNode.removeChild(t);}}catch(u){}}()/* ]]&gt; */&lt;/script&gt;\nEncoded date : UTC 2015-06-17 06:58:07\nTagged date : UTC 2015-06-17 06:58:08","torrent":{"xt":"urn:btih:e555aa15fac686f674d8f43b5bcb2f5121c87b75","amp;dn":"Get+Hard+%282015%29+720p+x265+HEVC+-+YIFY+%26amp%3B+NTG","amp;tr":["udp%3A%2F%2Ftracker.openbittorrent.com%3A80","udp%3A%2F%2Fopen.demonii.com%3A1337","udp%3A%2F%2Ftracker.coppersurfer.tk%3A6969","udp%3A%2F%2Fexodus.desync.com%3A6969"],"infoHash":"e555aa15fac686f674d8f43b5bcb2f5121c87b75","infoHashBuffer":{"type":"Buffer","data":[229,85,170,21,250,198,134,246,116,216,244,59,91,203,47,81,33,200,123,117]},"announce":[],"urlList":[]}}